<svg version="1.1" id="Layer_1" xmlns="http://www.w3.org/2000/svg" xmlns:xlink="http://www.w3.org/1999/xlink" x="0px" y="0px"
	 width="100%" viewBox="0 0 560 720" enable-background="new 0 0 560 720" xml:space="preserve">
<path fill="#000000" opacity="1.000000" stroke="none" 
	d="
M55.493019,425.539368 
	C54.079365,424.181671 52.118877,423.091675 53.754059,421.274231 
	C55.208565,419.657684 56.829617,420.909912 58.151394,421.956512 
	C71.773102,432.742340 86.957642,429.419495 99.439941,419.762665 
	C102.863838,417.113800 106.141037,414.277649 108.991745,410.978699 
	C110.119637,409.673401 111.622353,408.474426 113.280952,409.910492 
	C115.148682,411.527649 113.485870,412.911102 112.457047,414.125793 
	C108.245796,419.097961 102.857872,422.786957 97.818405,427.112213 
	C99.369202,431.261383 102.163162,434.314453 105.069504,437.250092 
	C121.200127,453.543488 140.737625,464.497314 161.814957,472.842377 
	C191.909988,484.757721 223.343765,490.779938 255.472351,493.904449 
	C273.925690,495.699066 292.409790,496.480896 310.859558,495.550232 
	C351.599396,493.495270 390.791840,485.548401 425.454498,462.291931 
	C431.279938,458.383453 436.712830,454.005768 441.735840,449.092804 
	C444.197235,446.685364 445.019501,444.662994 442.739197,441.400055 
	C439.469757,436.721741 437.604065,431.315491 437.213379,425.535248 
	C437.111694,424.031464 437.287415,422.321869 439.229889,422.059204 
	C441.222412,421.789795 441.788422,423.448059 442.007904,424.925446 
	C445.057373,445.454468 459.564087,453.847534 477.536072,458.644928 
	C479.753540,459.236847 483.780151,458.745270 483.152863,461.942047 
	C482.538116,465.074829 478.950378,463.246521 476.755615,462.797211 
	C467.839630,460.972046 459.417938,457.767487 452.377533,451.880859 
	C448.857483,448.937683 447.102539,450.155914 444.947083,453.313873 
	C432.253387,471.911469 423.211273,492.205048 416.294983,513.559570 
	C411.154907,529.429932 408.573761,545.913696 404.250122,561.967957 
	C395.130280,595.830994 378.368866,624.650574 348.517334,644.513794 
	C330.522003,656.487854 310.557678,662.618958 289.065277,664.520691 
	C264.885742,666.660095 241.462936,663.429443 219.008011,654.621826 
	C184.478989,641.078369 161.065796,615.924805 145.765381,582.572021 
	C136.550415,562.484619 133.013809,541.067749 129.578552,519.498840 
	C124.594612,488.206177 114.369827,458.855652 95.367355,433.009338 
	C93.301788,430.199890 91.563454,429.719421 88.341820,430.895355 
	C76.620842,435.173553 65.754875,433.039886 55.493019,425.539368 
M352.697052,495.327301 
	C283.061432,506.710724 215.542725,498.524323 149.356003,473.198242 
	C149.198761,480.755951 151.613007,487.321564 155.205444,493.555389 
	C163.813858,508.493195 177.503922,517.336792 192.963776,523.233154 
	C230.346420,537.490662 269.073334,541.869385 308.743256,536.605347 
	C327.723328,534.086853 345.234924,527.550171 359.933167,514.799500 
	C367.646759,508.108063 373.525696,500.053711 377.738220,489.825775 
	C369.064362,491.768890 361.310577,493.505920 352.697052,495.327301 
M237.188599,639.845825 
	C239.425385,639.789185 241.271881,638.569885 243.299881,637.878784 
	C248.892075,635.973328 253.283920,632.073242 258.337646,629.304565 
	C268.708374,623.623108 279.068054,630.429932 289.463440,629.647949 
	C289.722351,629.628479 290.062714,629.947388 290.276947,630.187195 
	C296.120270,636.728149 304.375000,636.091248 311.945526,637.347961 
	C314.536591,637.778137 315.504700,635.851501 314.005341,633.938721 
	C310.114288,628.974548 305.857361,624.664795 298.922028,623.651001 
	C294.345001,622.981934 289.799408,624.122986 285.178802,622.540894 
	C273.009613,618.373901 260.788910,616.921082 249.646500,625.364685 
	C247.290878,622.043823 247.310684,622.086731 244.428070,623.418091 
	C240.371857,625.291504 237.871994,628.996216 234.531906,631.709595 
	C233.123138,632.853943 231.606903,633.593445 230.066498,632.224060 
	C228.294205,630.648438 229.590958,629.205566 230.651932,627.919983 
	C233.208923,624.821411 236.260727,622.268433 239.483673,619.880005 
	C245.204254,615.640625 245.165527,614.353516 238.360428,611.618103 
	C224.866135,606.193848 211.364624,606.737183 198.191910,612.847778 
	C196.108215,613.814392 193.449509,614.713745 193.023239,617.510010 
	C198.862671,622.733154 205.147522,626.828613 212.564911,629.100403 
	C215.374542,629.960938 218.757736,630.120300 220.646286,632.676025 
	C224.615433,638.047302 230.149979,639.596375 237.188599,639.845825 
z"/>
<path fill="#000000" opacity="1.000000" stroke="none" 
	d="
M110.267288,370.002411 
	C83.776573,361.850464 67.773926,343.211334 57.689419,318.993134 
	C42.912647,283.506317 44.071232,247.220703 53.838009,210.769928 
	C60.744560,184.993851 72.522079,161.587051 89.651077,141.143234 
	C104.176857,123.806389 121.145973,109.370636 143.499039,103.107986 
	C151.168579,100.959213 159.084259,100.021957 167.329788,100.023926 
	C175.376984,100.025856 182.941635,101.761246 190.167496,103.898323 
	C199.925919,106.784416 208.805008,112.244690 216.311707,119.572571 
	C236.121796,138.910751 245.143402,163.195740 248.234131,189.970963 
	C253.142487,232.492615 243.778900,272.169800 222.063950,308.748199 
	C207.533340,333.224731 188.483109,353.486267 161.872604,365.355438 
	C145.374542,372.714111 128.282318,374.458710 110.267288,370.002411 
M233.453583,157.084473 
	C230.198105,149.019882 226.070557,141.429428 221.013000,134.354324 
	C199.344055,104.041298 163.602509,98.090622 132.286484,114.299843 
	C107.245163,127.261261 89.691803,147.537643 76.449532,171.836563 
	C63.294197,195.975922 55.850002,221.877838 53.838165,249.335907 
	C51.890144,275.923065 55.375359,301.564331 67.883247,325.372803 
	C77.959686,344.553101 92.532501,358.911224 114.355080,364.060913 
	C135.238373,368.989014 154.371552,363.707092 171.978439,352.489746 
	C198.820282,335.388794 215.866470,310.378906 228.236115,281.637756 
	C231.499374,274.055511 233.915955,266.000977 233.900818,258.173523 
	C233.882599,248.756088 235.731491,239.610519 236.952576,230.565338 
	C238.312164,220.494263 239.967865,210.674561 239.117828,200.474701 
	C238.779144,196.410812 241.300415,192.645370 240.895996,188.296173 
	C239.916916,177.766663 237.472504,167.652573 233.453583,157.084473 
z"/>
<path fill="#000000" opacity="1.000000" stroke="none" 
	d="
M467.924133,361.871704 
	C457.547638,375.752655 445.167053,386.711243 429.339874,393.181946 
	C403.079132,403.918274 378.615753,399.496613 356.439453,382.716797 
	C330.856110,363.358948 316.956940,336.366425 309.042145,306.006866 
	C300.343048,272.638763 300.295776,239.163483 309.660034,205.892517 
	C316.490784,181.622864 327.653870,159.632462 346.241425,142.132217 
	C362.310425,127.003143 381.322296,118.529419 403.742432,119.984291 
	C424.737732,121.346687 441.741364,131.478943 456.179321,146.145798 
	C474.783234,165.044617 485.854553,188.089371 492.338135,213.546753 
	C501.173950,248.240128 500.456909,282.762939 490.167358,317.021301 
	C485.344940,333.077271 478.025848,347.990112 467.924133,361.871704 
M481.759155,320.290741 
	C483.568604,314.246033 485.169617,308.219238 485.900940,301.861694 
	C486.386688,297.638855 486.434235,293.212311 487.559387,289.175171 
	C489.313507,282.881195 490.351288,276.513824 490.847351,270.092438 
	C492.533020,248.272919 489.769348,226.860031 483.337280,206.028488 
	C476.410034,183.593155 465.559998,163.333908 448.126495,147.073410 
	C421.620880,122.351295 388.324341,119.466644 359.602173,139.744354 
	C343.206329,151.319733 332.160858,167.308380 324.245850,185.431747 
	C308.469666,221.555222 305.789490,259.068024 313.918518,297.383667 
	C319.990631,326.003784 331.969574,351.680634 353.802704,371.941559 
	C382.986816,399.024048 422.840607,398.245392 451.224304,370.425446 
	C465.496582,356.436615 474.813141,339.577209 481.759155,320.290741 
z"/>
<path fill="#000000" opacity="1.000000" stroke="none" 
	d="
M468.118011,70.927551 
	C477.470673,83.384865 482.938293,96.902336 483.296631,112.265312 
	C483.363770,115.142197 483.247498,118.197502 480.119965,119.553963 
	C476.797516,120.994980 474.795013,118.385704 472.928253,116.372429 
	C467.039856,110.021988 461.531525,103.306450 455.463989,97.137512 
	C443.413757,84.885857 429.148590,76.633873 411.630005,75.676315 
	C397.569336,74.907768 384.759094,79.543640 372.695984,86.415443 
	C362.349060,92.309601 353.206177,99.781937 344.738647,108.102135 
	C341.981689,110.811134 339.083466,113.341011 335.489075,114.799759 
	C332.073883,116.185776 330.443115,114.845161 330.600250,111.172935 
	C330.681702,109.270103 331.311615,107.559944 332.405304,106.061226 
	C349.899139,82.088760 370.427124,61.867321 399.435913,52.257603 
	C425.045044,43.774090 451.084259,50.800652 468.118011,70.927551 
z"/>
<path fill="#000000" opacity="1.000000" stroke="none" 
	d="
M195.293655,75.704849 
	C172.781906,55.208576 138.076279,58.854752 118.326759,78.441246 
	C114.545822,82.190956 110.975647,86.152946 107.298866,90.008064 
	C105.976730,91.394333 104.989014,93.336426 102.631714,93.123810 
	C101.126205,91.384819 101.521408,89.462540 101.931519,87.777885 
	C110.640282,52.004093 147.574402,33.056705 176.906921,41.707161 
	C193.058212,46.470337 203.450928,58.352612 212.321503,71.784409 
	C218.128082,80.576759 222.454483,90.140701 226.015579,100.046165 
	C226.464310,101.294357 226.945175,102.589462 227.045731,103.891060 
	C227.207138,105.980637 226.573456,107.965935 224.570465,108.950508 
	C222.657730,109.890724 221.067963,108.820145 219.620163,107.559990 
	C217.934769,106.093033 217.038055,104.112923 216.003357,102.215347 
	C210.620300,92.343079 204.114685,83.343361 195.293655,75.704849 
z"/>
<path fill="#000000" opacity="1.000000" stroke="none" 
	d="
M208.445969,664.694641 
	C203.194580,661.731567 198.234039,659.010742 193.387680,656.099792 
	C191.935867,655.227783 189.666397,654.070862 191.166809,651.897095 
	C192.644669,649.755859 194.447784,651.468445 195.934631,652.409546 
	C212.450912,662.862793 230.279800,669.850952 249.602036,673.029602 
	C270.159637,676.411560 290.360199,675.177246 310.267181,668.914124 
	C312.367096,668.253357 315.774384,665.733704 316.755188,669.013794 
	C317.798950,672.504578 313.495728,672.451782 311.221771,673.161255 
	C275.977051,684.156677 241.908981,680.214478 208.445969,664.694641 
z"/>
<path fill="#000000" opacity="1.000000" stroke="none" 
	d="
M195.470856,302.377625 
	C188.519043,314.753540 180.424271,325.713440 168.338394,332.946075 
	C146.196533,346.196442 123.454536,340.398834 109.983810,318.213379 
	C98.650475,299.548065 95.410316,278.958954 96.963509,257.647675 
	C98.686752,234.003143 105.433792,211.848846 119.846451,192.561432 
	C127.363663,182.501694 136.486893,174.366409 148.578354,170.154816 
	C162.991043,165.134659 175.856583,168.238434 187.115845,178.152344 
	C199.316788,188.895401 205.236298,203.154083 208.112106,218.662750 
	C213.517456,247.812820 209.078598,275.639801 195.470856,302.377625 
M198.489349,242.096222 
	C204.831970,235.261841 204.700745,226.884964 203.659546,218.535599 
	C202.320831,207.800201 198.336258,198.191376 189.204758,191.627518 
	C181.866638,186.352768 174.442459,188.539001 170.790726,196.704666 
	C164.722885,210.272995 170.826828,233.450241 182.753876,242.130051 
	C187.910797,245.882919 192.775131,246.038940 198.489349,242.096222 
z"/>
<path fill="#000000" opacity="1.000000" stroke="none" 
	d="
M338.413696,309.458496 
	C326.960785,277.854614 325.321533,246.623032 339.373566,215.783691 
	C345.988129,201.266937 356.129089,189.990494 372.703979,186.767944 
	C388.259705,183.743546 400.898285,190.288513 411.515717,200.687927 
	C431.548584,220.309418 439.861359,245.208801 442.313416,272.518372 
	C444.013245,291.450439 441.499603,309.752136 433.911255,327.201355 
	C429.741974,336.788513 423.921143,345.328369 415.182709,351.415619 
	C401.894470,360.672363 387.943939,361.490845 373.755951,353.712097 
	C356.003326,343.979095 345.892365,327.977295 338.413696,309.458496 
M427.015137,233.494217 
	C423.935089,220.664322 417.582489,210.094849 405.606842,203.774292 
	C394.223999,197.766602 385.516724,203.301544 385.984985,216.192276 
	C386.469177,229.522095 392.847809,239.949341 403.011902,248.085571 
	C408.427917,252.421036 414.641174,256.217682 421.684357,252.076355 
	C428.501312,248.068054 428.202881,241.129990 427.015137,233.494217 
z"/>
</svg>